<?xml version="1.0" encoding="utf-8"?>
<!-- Generator: Adobe Illustrator 18.0.0, SVG Export Plug-In . SVG Version: 6.00 Build 0)  -->
<!DOCTYPE svg PUBLIC "-//W3C//DTD SVG 1.1//EN" "http://www.w3.org/Graphics/SVG/1.1/DTD/svg11.dtd">
<svg version="1.1" id="Layer_1" xmlns="http://www.w3.org/2000/svg" xmlns:xlink="http://www.w3.org/1999/xlink" x="0px" y="0px"
	 width="1400px" height="980px" viewBox="0 0 1400 980" enable-background="new 0 0 1400 980" xml:space="preserve">
<path fill="#58595B" d="M1119.9,395.7c-38.1,0-56.8-24.1-63-34.5c-2.3-3.9-3.3-8.5-2.6-13.1c0.4-2.7,0.8-7.3,0.6-14.1
	c-0.3-14.5,8.3-34.5,25.6-44.7c16.3-9.7,39.2-10.7,39.4-10.7s23.1,1,39.4,10.7c17.2,10.3,25.9,30.3,25.6,44.7
	c-0.2,6.8,0.3,11.4,0.6,14.1c0.6,4.6-0.3,9.3-2.6,13.1C1176.6,371.6,1158,395.7,1119.9,395.7z"/>
<g>
	<path fill="#58595B" d="M292.5,409.3c-0.3,0-31-0.5-49.9-19.5c-14.5-14.5-16-34.7-4.2-54.7c-6.9-5.1-15.9-14.4-20.7-29.5
		c-1.3-4.1-2.2-8.4-2.7-12.9l-0.1-0.6c-0.1-0.9-0.2-1.8-0.2-2.8c0-0.3,0-0.7-0.1-1c0-0.8-0.1-1.7-0.1-2.5c0-0.4,0-0.8,0-1.2
		c0-0.9,0-1.7,0-2.6l0-0.4c0-0.3,0-0.5,0-0.8c0.1-1.4,0.1-2.6,0.2-3.8l0.4-5.6l5.6,1.1l0.9,0.2l0.6,0.2c0.2,0,0.8,0.2,0.8,0.2
		l0.7,0.2l1,0.3l0.5,0.2c0.2,0.1,0.5,0.2,0.7,0.3l0.5,0.2c0.3,0.1,0.6,0.2,0.8,0.3l0.5,0.2l0.6,0.3c0.3,0.1,0.5,0.2,0.8,0.4
		c0.2,0.1,0.5,0.2,0.7,0.3l0.6,0.3c0.3,0.2,0.7,0.3,1,0.5l0.6,0.3c0.2,0.1,0.5,0.3,0.7,0.4c0.3,0.2,0.6,0.3,0.9,0.5
		c0.3,0.2,0.5,0.3,0.8,0.5c0.2,0.1,0.4,0.3,0.7,0.4c0.4,0.2,0.8,0.5,1.2,0.7c0.2,0.1,0.4,0.3,0.7,0.4c0.3,0.2,0.6,0.4,0.9,0.7
		c0.3,0.2,0.6,0.4,0.8,0.6c0.3,0.2,0.6,0.5,0.9,0.7c0,0,0.4,0.3,0.6,0.5c0.4,0.3,0.8,0.7,1.3,1c0.2,0.2,0.4,0.3,0.6,0.5
		c0.4,0.4,0.9,0.8,1.3,1.2c7.7,7.2,13.3,16.6,16.5,27.9c1.3-0.8,2.7-1.5,4.1-2.1c5.7-2.7,11.8-4.6,18.1-5.5l0.2-0.4h-15.3l22.3-40.8
		h44.9l-20.3,24.1H330l-17.7,19.2c2.9,0.9,5.7,2,8.4,3.3c1.4,0.7,2.8,1.4,4.1,2.1c3.2-11.3,8.7-20.6,16.5-27.9
		c0.4-0.4,0.9-0.8,1.3-1.2c0.2-0.2,0.4-0.4,0.6-0.5c0.4-0.4,0.8-0.7,1.3-1c0.2-0.1,0.6-0.5,0.6-0.5c0.3-0.2,0.6-0.5,0.9-0.7
		c0.3-0.2,0.5-0.4,0.8-0.6c0.3-0.2,0.6-0.4,0.9-0.7l0.7-0.4c0.4-0.3,0.8-0.5,1.2-0.7c0.2-0.1,0.4-0.3,0.7-0.4
		c0.3-0.2,0.5-0.3,0.8-0.5c0.3-0.2,0.6-0.3,0.9-0.5c0.2-0.1,0.5-0.3,0.7-0.4l0.6-0.3c0.3-0.2,0.7-0.3,1-0.5l0.6-0.3
		c0.2-0.1,0.5-0.2,0.7-0.3c0.3-0.1,0.5-0.2,0.8-0.4l0.6-0.3l0.6-0.2c0.3-0.1,0.5-0.2,0.8-0.3l0.5-0.2c0.2-0.1,0.5-0.2,0.7-0.3l1-0.3
		l0.4-0.1l0.9-0.3c0.2-0.1,0.8-0.2,0.8-0.2l0.6-0.1l0.8-0.2l5.6-1.4l0.5,6c0.1,1.2,0.2,2.4,0.2,3.7c0,0.3,0,0.5,0,0.8l0,0.4
		c0,0.9,0,1.7,0,2.6c0,0.3,0,0.7,0,1l0,0.1c0,0.8,0,1.7-0.1,2.5c0,0.3,0,0.7-0.1,1c-0.1,0.9-0.1,1.8-0.2,2.7l-0.1,0.6
		c-2.5,23.1-15.1,36.1-23.4,42.4c11.8,20,10.3,40.1-4.2,54.7C323.5,408.7,292.8,409.3,292.5,409.3z"/>
	<g>
		<path fill="#F9B800" d="M285.5,309.9c5.8-0.7,11.7-0.5,17.4,0.5l15.7-17.1h-15.3l20.3-24.1h-31.2l-16.8,30.8h15.5L285.5,309.9z"/>
		<path fill="#FED400" d="M365.2,277.5c0,0-29.9,5.2-37.1,43.5c-3.1-2.3-6.3-4.2-9.5-5.7c-16.5-7.8-35.8-7.8-52.2,0
			c-3.2,1.5-6.4,3.4-9.5,5.7c-7.2-38.3-37.1-43.5-37.1-43.5c-2.8,35.4,17.3,51.2,25.4,56.2c-12.4,18.1-13.7,37.8,0.9,52.5
			c16,16,42.4,18,46.4,18s30.4-2,46.4-18c14.7-14.7,13.4-34.4,0.9-52.5C348,328.8,368.1,312.9,365.2,277.5z"/>
		<path fill="#FCCC00" d="M365.2,277.5c0,0-29.9,5.2-37.1,43.5c-3.1-2.3-6.3-4.2-9.5-5.7c-8.2-3.9-17.2-5.8-26.1-5.8v94.8h0
			c4,0,30.4-2,46.4-18c14.7-14.7,13.4-34.4,0.9-52.5C348,328.8,368.1,312.9,365.2,277.5z"/>
		<path fill="#58595B" d="M236.6,303.3c3.5-2.5,4.2-8.3,3.6-14.5c-10-9.4-20.5-11.2-20.5-11.2c-0.8,10.5,0.3,19.3,2.6,26.6
			C225.5,305.3,231.7,306.8,236.6,303.3z"/>
		<path fill="#4D4E4F" d="M348.4,303.3c-3.5-2.5-4.2-8.3-3.6-14.5c10-9.4,20.5-11.2,20.5-11.2c0.8,10.5-0.3,19.3-2.6,26.6
			C359.4,305.3,353.2,306.8,348.4,303.3z"/>
		<circle fill="#58595B" cx="263.8" cy="344.1" r="10.2"/>
		<circle fill="#ED7EB1" cx="256" cy="364.1" r="7.7"/>
		<circle fill="#F1F2F2" cx="259.8" cy="340.9" r="2.6"/>
		<circle fill="#58595B" cx="321.2" cy="344.1" r="10.2"/>
		<circle fill="#E274AB" cx="328.9" cy="364.1" r="7.7"/>
		<circle fill="#F1F2F2" cx="325.2" cy="340.9" r="2.6"/>
		<path fill="#58595B" d="M292.5,356.3H288c-1.1,0-1.7,1.3-1,2.1c1,1.4,2.8,2.9,5.6,2.9c2.7,0,4.5-1.5,5.6-2.9
			c0.7-0.9,0.1-2.1-1-2.1H292.5z"/>
		<path fill="#58595B" d="M303,366.1c-0.4,0-0.7,0.3-0.7,0.7v0.7c0,2.5-2,4.5-4.5,4.5c-2.5,0-4.6-2.1-4.6-4.6v-2.3
			c0-0.4-0.3-0.7-0.7-0.7c-0.4,0-0.7,0.3-0.7,0.7v2.3c0,2.5-2.1,4.6-4.6,4.6c-2.5,0-4.5-2-4.5-4.5v-0.7c0-0.4-0.3-0.7-0.7-0.7
			c-0.4,0-0.7,0.3-0.7,0.7v0.7c0,3.3,2.7,6,6,6c2.3,0,4.3-1.3,5.4-3.2c1,1.9,3,3.2,5.4,3.2c3.3,0,6-2.7,6-6v-0.7
			C303.8,366.5,303.5,366.1,303,366.1z"/>
	</g>
</g>
<g>
	<path fill="#58595B" d="M564.8,410.8c-49,0-58.3-24.9-59.9-37.5c-21.9-23.4-20.1-46.5,5.7-74.7c15.8-17.3,31.3-27.4,41.6-32.9
		c3.9-2.1,8.2-3.2,12.6-3.2c4.4,0,8.7,1.1,12.6,3.2c10.3,5.5,25.8,15.7,41.6,32.9c25.8,28.2,27.6,51.3,5.7,74.7
		C623.1,386,613.8,410.8,564.8,410.8z"/>
	<g>
		<path fill="#129163" d="M615.3,302c-15.5-16.9-30.7-26.8-40.3-31.9c-6.4-3.4-14.1-3.4-20.5,0c-9.6,5.1-24.8,15-40.3,31.9
			c-25.6,28-25,48.2-4.6,69.1h55.1h55.1C640.3,350.2,640.9,330.1,615.3,302z"/>
		<path fill="#087249" d="M564.1,267.6c-2.8,3.1-13.3,15.3-21.1,34.6c-9.1,22.6-18.2,45.6-18.2,45.6l-8.4,23.3h3.8
			c3.8-10.3,19.3-51.9,24.5-67.1c6.7-19.4,16.8-33.1,19.5-36.4C564.1,267.6,564.1,267.6,564.1,267.6z"/>
		<path fill="#087249" d="M565.6,267.6c2.8,3.1,13.3,15.3,21.1,34.6c9.1,22.6,18.2,45.6,18.2,45.6l8.4,23.3h-3.8
			c-3.8-10.3-19.3-51.9-24.5-67.1c-6.7-19.4-16.8-33.1-19.5-36.4C565.5,267.6,565.5,267.6,565.6,267.6z"/>
		<g>
			<path fill="#67BA9E" d="M564.8,314c0,0,22.7,1.6,32.4,12.2c0,0,8.3-6.7,22.7-7.3c0,0-3.4,16.5-7.3,23c0,0,8.7,11.7,7.3,29.4
				s-15.4,34.7-55.1,34.7V314z"/>
			<path fill="#75C9AF" d="M564.8,314c0,0-22.7,1.6-32.4,12.2c0,0-8.3-6.7-22.7-7.3c0,0,3.4,16.5,7.3,23c0,0-8.7,11.7-7.3,29.4
				c1.4,17.7,15.4,34.7,55.1,34.7V314z"/>
			<path fill="#F1F2F2" d="M520.5,370.6c0.5-3,3-16.1,11.7-25.2c0.5-0.5,1.3-0.4,1.6,0.2c2.3,3.5,9.1,14.8,10.8,27.8
				c0.1,0.6-0.3,1.1-0.9,1.2c-3.7,0.5-16.5,1.6-22.9-2.9C520.6,371.3,520.5,370.9,520.5,370.6z"/>
			<path fill="#B11439" d="M526.2,373.8c6.5,1.7,14.7,0.9,17.6,0.6c0.6-0.1,1-0.6,0.9-1.2c-1.2-8.8-4.7-16.8-7.5-22.1
				C530.1,358.8,527.2,369.1,526.2,373.8z"/>
			<path fill="#B11439" d="M564.8,387.9c0,0-21.3-8.6-41.7-7.1c0,0,16.4,16.3,41.7,16.3V387.9z"/>
			<path fill="#F1F2F2" d="M539.1,381.4c-1-0.1-2-0.2-3.1-0.3l1.2,4.2L539.1,381.4z"/>
			<circle fill="#F1F2F2" cx="536" cy="361.7" r="2.2"/>
			<path fill="#F1F2F2" d="M609.1,370.6c-0.5-3-3-16.1-11.7-25.2c-0.5-0.5-1.3-0.4-1.6,0.2c-2.3,3.5-9.1,14.8-10.8,27.8
				c-0.1,0.6,0.3,1.1,0.9,1.2c3.7,0.5,16.5,1.6,22.9-2.9C609,371.3,609.2,370.9,609.1,370.6z"/>
			<path fill="#B11439" d="M603.4,373.8c-6.5,1.7-14.7,0.9-17.6,0.6c-0.6-0.1-1-0.6-0.9-1.2c1.2-8.8,4.7-16.8,7.5-22.1
				C599.5,358.8,602.4,369.1,603.4,373.8z"/>
			<path fill="#A5133D" d="M564.8,387.9c0,0,21.3-8.6,41.7-7.1c0,0-16.4,16.3-41.7,16.3V387.9z"/>
			<path fill="#F1F2F2" d="M590.6,381.4c1-0.1,2-0.2,3.1-0.3l-1.2,4.2L590.6,381.4z"/>
			<circle fill="#F1F2F2" cx="593.6" cy="361.7" r="2.2"/>
			<path fill="#59AA8D" d="M549.7,324.9c1.2,6.1,5.6,17.7,20.7,23.9c1.6,0.6,3.4-0.1,4-1.8c1.3-3.7,3.3-10.3,2.5-15.6
				c-0.1-0.7-0.5-1.3-1-1.8c-2.1-1.8-8.2-6-22.7-8.2C551.1,321,549.3,322.8,549.7,324.9z"/>
			<path fill="#59AA8D" d="M553.8,352.8c2.6,0.4,7.1,1.4,11.4,4.2c0.6,0.4,0.7,1.2,0.3,1.7c-1,1.4-2.9,3.8-4.9,4.9
				c-0.4,0.2-1,0.1-1.4-0.2c-1.3-1.2-4.2-4.4-6.6-8.7C552.1,353.7,552.8,352.7,553.8,352.8z"/>
			<path fill="#59AA8D" d="M580.7,352.9c-1.9,0.2-5,0.4-6.9,0.8c-0.4,0.1-0.6,0.4-0.6,0.8c0.2,1.1,0.6,3.2,1.3,4.3
				c0.2,0.4,0.7,0.5,1.1,0.2c1.1-0.8,3.5-2.7,5.7-4.9C581.7,353.7,581.3,352.9,580.7,352.9z"/>
		</g>
	</g>
</g>
<g>
	<path fill="#58595B" d="M840.7,399.3c-28.8,0-52.2-15.4-63.6-28.5c-10-11.6-14.9-33.9-2.7-56.1c-2.3-5.8-5.8-20.1,4.8-36.7l1.5-2.4
		l2.8,0.1c0.6,0,12.8,0.3,23.2,7.3c10.3-5.9,22-9,33.9-9c11.5,0,22.9,2.9,33,8.5c0.3,0.2,0.6,0.3,0.9,0.5c10.4-7,22.7-7.3,23.2-7.3
		l2.8-0.1l1.5,2.4c10.6,16.6,7.1,30.9,4.8,36.7c12.2,22.2,7.3,44.5-2.7,56.1C892.9,384,869.5,399.3,840.7,399.3z"/>
	<g>
		<path fill="#1B96E0" d="M901.3,315L901.3,315c0,0,8.7-15.4-3.4-34.3c0,0-13.3,0.3-23,8.3v0c-0.2-0.1-0.4-0.2-0.6-0.3
			c-20.5-12.8-46.8-12.8-67.3,0c-0.2,0.1-0.4,0.2-0.6,0.3v0c-9.7-8-23-8.3-23-8.3C771.3,299.6,780,315,780,315l0,0
			c-12.8,21.2-7.8,42.5,0.9,52.6c10.4,12.1,32.4,26.8,59.8,26.8c27.3,0,49.3-14.7,59.8-26.8C909.1,357.5,914.1,336.2,901.3,315z"/>
		<path fill="#F5D6B9" d="M883.2,314.6c-11.6-4.8-25.1-6.2-25.1-6.2L840.7,327l-17.5-18.6c0,0-13.5,1.4-25.1,6.2
			c-11.6,4.8-18.9,17.5-18.3,31.9c0.5,12.7,10.6,34.3,45.5,42.8c10.1,2.4,20.7,2.4,30.8,0c34.8-8.4,45-30.1,45.5-42.8
			C902.1,332,894.8,319.3,883.2,314.6z"/>
		<path fill="#1390CE" d="M900.4,367.6c8.7-10.1,13.7-31.4,0.9-52.6l0,0c0,0,8.7-15.4-3.4-34.3c0,0-13.3,0.3-23,8.3v0
			c-0.2-0.1-0.4-0.2-0.6-0.3c-10.3-6.4-22-9.6-33.7-9.6v115.3C868,394.3,890,379.7,900.4,367.6z"/>
		<path fill="#EAC9AD" d="M856.1,389.2c34.8-8.4,45-30.1,45.5-42.8c0.6-14.4-6.8-27.1-18.3-31.9c-11.6-4.8-25.1-6.2-25.1-6.2
			L840.7,327V391C845.8,391,851,390.4,856.1,389.2z"/>
		<path fill="#58595B" d="M853.1,344.2c0,0,1.7-7,9.6-9c7.9-2,12.2,3.4,12.2,3.4s-5.2-4.1-12.1-1.2c-6.9,2.8-7.8,7.9-7.8,7.9
			L853.1,344.2z"/>
		<path fill="#58595B" d="M828.3,344.2c0,0-1.7-7-9.6-9c-7.9-2-12.2,3.4-12.2,3.4s5.2-4.1,12.1-1.2c6.9,2.8,7.8,7.9,7.8,7.9
			L828.3,344.2z"/>
		<path fill="#58595B" d="M848.4,358.5c-5.1-1.3-10.4-1.3-15.4,0c-4.2,1.1-9.6,2.6-14.8,4.9c0,0,11.6-3.2,22.5-3.2
			s22.5,3.2,22.5,3.2C858,361.2,852.6,359.6,848.4,358.5z"/>
	</g>
</g>
<g>
	<path fill="#50C7E5" d="M1180.6,348.7c-0.4-3.1-0.8-8-0.7-14.9c0.3-13.8-8.4-31.6-23.1-40.3c-14.7-8.8-35.6-10-36.9-10
		s-22.2,1.3-36.9,10c-14.7,8.8-23.4,26.6-23.1,40.3c0.2,6.9-0.2,11.8-0.7,14.9c-0.5,3.4,0.2,6.9,1.9,9.9
		c6.3,10.4,23.5,32.1,58.7,32.1c35.2,0,52.5-21.7,58.7-32.1C1180.4,355.6,1181,352.2,1180.6,348.7z"/>
	<path fill="#29B5D5" d="M1178.6,358.6c1.8-3,2.4-6.4,1.9-9.9c-0.4-3.1-0.8-8-0.7-14.9c0.3-13.8-8.4-31.6-23.1-40.3
		c-14.7-8.8-35.6-10-36.9-10v107.2C1155.1,390.7,1172.4,369,1178.6,358.6z"/>
	<path fill="#F1F2F2" d="M1082.6,315.8c-2.3-1.1-5-0.7-7,0.9c-2.4,1.9-5.4,5.8-6.2,13.3c-1.4,13.3,1.6,18,3.7,19.8
		c2.2,1.8,5.9,1.8,12,1.8c6.1,0,6.5-5.9,6.5-10C1091.6,337.8,1091.4,320.2,1082.6,315.8z"/>
	<path fill="#414042" d="M1084.1,316.7c-6.5,3.2-11.1,10.9-11.1,20c0,5.6,1.8,10.7,4.7,14.5c2,0.2,4.4,0.2,7.4,0.2
		c6.1,0,6.5-5.9,6.5-10C1091.6,338,1091.5,322.3,1084.1,316.7z"/>
	<ellipse fill="#F1F2F2" cx="1083.1" cy="327" rx="2.8" ry="4.6"/>
	<path fill="#F1F2F2" d="M1157.1,315.8c2.3-1.1,5-0.7,7,0.9c2.4,1.9,5.4,5.8,6.2,13.3c1.4,13.3-1.6,18-3.7,19.8
		c-2.2,1.8-5.9,1.8-12,1.8c-6.1,0-6.5-5.9-6.5-10C1148.1,337.8,1148.3,320.2,1157.1,315.8z"/>
	<path fill="#414042" d="M1155.6,316.7c6.5,3.2,11.1,10.9,11.1,20c0,5.6-1.8,10.7-4.7,14.5c-2,0.2-4.4,0.2-7.4,0.2
		c-6.1,0-6.5-5.9-6.5-10C1148.1,338,1148.3,322.3,1155.6,316.7z"/>
	<ellipse fill="#F1F2F2" cx="1156.6" cy="327" rx="2.8" ry="4.6"/>
	<path fill="#414042" d="M1130.5,359.5c-5.3,0-10.6,2.2-10.6,2.2s-5.3-2.2-10.6-2.2c-5.3,0-34.5,0-34.5,0s6.9,27.1,45.1,27.1
		c38.2,0,45.1-27.1,45.1-27.1S1135.8,359.5,1130.5,359.5z"/>
	<path fill="#B92025" d="M1130.5,359.5c-5.3,0-10.6,2.2-10.6,2.2s-5.3-2.2-10.6-2.2c-3,0-13.4,0-22,0c-2.8,4.4-4.6,8.9-5.7,11.9
		c6.2,7.3,17.7,15.1,38.3,15.1c20.6,0,32.1-7.9,38.3-15.1c-1.1-3-3-7.5-5.7-11.9C1143.9,359.5,1133.4,359.5,1130.5,359.5z"/>
	<path fill="#A0131E" d="M1158.2,371.4c-1.1-3-3-7.5-5.7-11.9c-8.6,0-19,0-22,0c-5.3,0-10.6,2.2-10.6,2.2v24.9
		C1140.5,386.6,1152,378.7,1158.2,371.4z"/>
</g>
<g>
	<path fill="#58595B" d="M292.5,717.4c-40,0-73.5-30-77.7-69.8c0-0.3-0.1-0.7-0.1-1l0-0.3c-0.1-1-0.2-2-0.2-3l0-0.7
		c-0.1-1.3-0.1-2.5-0.1-3.6c0-1.1,0-2.3,0.1-3.6l0-0.7c0.1-1,0.1-2,0.2-3l0-0.2c0-0.3,0.1-0.7,0.1-1C219,591,252.4,561,292.5,561
		c40,0,73.5,30,77.7,69.8c0,0.3,0.1,0.7,0.1,1l0,0.3c0.1,1,0.2,2,0.2,3l0,0.7c0.1,1.3,0.1,2.5,0.1,3.6c0,1.1,0,2.3-0.1,3.6l0,0.6
		c-0.1,1-0.1,2-0.2,3l0,0.2c0,0.2,0,0.4,0,0.6c0,0.1,0,0.3,0,0.4c-2.6,24.1-16.5,45.9-37.2,58.5c-1.1,0.7-2.2,1.3-3.3,1.9
		c-4.5,2.4-9.2,4.4-14,5.9C308.2,716.2,300.4,717.4,292.5,717.4z"/>
	<g>
		<path fill="#F1F2F2" d="M292.5,566c-40.4,0-73.2,32.8-73.2,73.2c0,40.4,32.8,73.2,73.2,73.2s73.2-32.8,73.2-73.2
			C365.7,598.8,332.9,566,292.5,566z M292.5,650c-6,0-10.8-4.8-10.8-10.8c0-6,4.8-10.8,10.8-10.8c6,0,10.8,4.8,10.8,10.8
			C303.3,645.2,298.4,650,292.5,650z"/>
		<path fill="#D50B06" d="M292.5,566c-40.4,0-73.2,32.8-73.2,73.2h146.4C365.7,598.8,332.9,566,292.5,566z"/>
		<path fill="#414042" d="M292.5,615.8c-10.1,0-18.8,6.5-22,15.5h-50.8c-0.3,2.6-0.4,5.2-0.4,7.9s0.2,5.3,0.4,7.9h50.8
			c3.2,9,11.9,15.5,22,15.5c12.9,0,23.4-10.5,23.4-23.4C315.9,626.3,305.4,615.8,292.5,615.8z M292.5,650c-0.7,0-1.4-0.1-2-0.2
			c0,0-0.1,0-0.1,0c-0.6-0.1-1.3-0.3-1.9-0.6c0,0,0,0-0.1,0c-0.6-0.2-1.2-0.5-1.7-0.9c0,0,0,0,0,0c-0.6-0.4-1.1-0.8-1.6-1.2l0,0l0,0
			c-2.1-2-3.5-4.8-3.5-7.9c0-3.8,2-7.2,5-9.1c0,0,0,0,0,0c0.5-0.3,1.1-0.7,1.7-0.9c0,0,0,0,0.1,0c0.6-0.2,1.2-0.4,1.9-0.6
			c0,0,0.1,0,0.1,0c0.7-0.1,1.3-0.2,2-0.2c6,0,10.8,4.8,10.8,10.8C303.3,645.2,298.4,650,292.5,650z"/>
		<path fill="#E5E5E5" d="M292.5,566v62.4c6,0,10.8,4.8,10.8,10.8c0,6-4.8,10.8-10.8,10.8v62.4c40.4,0,73.2-32.8,73.2-73.2
			S332.9,566,292.5,566z"/>
		<path fill="#E5E5E5" d="M303.2,638.1c-0.1-0.7-0.2-1.4-0.4-2.1c-0.1-0.3-0.2-0.7-0.4-1c-1.6-3.9-5.5-6.6-9.9-6.6
			c-6,0-10.8,4.8-10.8,10.8c0,6,4.8,10.8,10.8,10.8c6,0,10.8-4.8,10.8-10.8C303.3,638.9,303.3,638.5,303.2,638.1z"/>
		<path fill="#C10202" d="M292.5,566v62.4c6,0,10.8,4.8,10.8,10.8h62.4C365.7,598.8,332.9,566,292.5,566z"/>
		<path fill="#323233" d="M292.5,615.8v12.6c6,0,10.8,4.8,10.8,10.8c0,6-4.8,10.8-10.8,10.8v12.6c12.9,0,23.4-10.5,23.4-23.4
			S305.4,615.8,292.5,615.8z"/>
		<path fill="#323233" d="M365.2,631.3h-65.4c2.1,2,3.5,4.8,3.5,7.9s-1.3,5.9-3.5,7.9h65.4c0.3-2.6,0.4-5.2,0.4-7.9
			S365.5,633.9,365.2,631.3z"/>
	</g>
</g>
<g>
	<path fill="#58595B" d="M1066.5,716.2l24.2-51.8h10.4l-15-26.7c-4.9-5.5-8.3-11.9-10.1-18.9h-0.3l-0.6-4.4l-0.2-2l0-0.1
		c-0.1-0.6-0.1-1.3-0.2-2l0-0.2c0-0.9-0.1-1.7-0.1-2.5c0-0.8,0-1.6,0.1-2.4l0-0.2c0-0.7,0.1-1.5,0.2-2.3c0.6-5.9,2.4-11.5,5.2-16.7
		c7.9-14.6,23.2-23.7,39.8-23.7c23.2,0,42.5,17.3,45,40.3c0.1,0.8,0.1,1.6,0.2,2.4c0,0.9,0.1,1.7,0.1,2.5c0,0.8,0,1.6-0.1,2.4l0,0.3
		c0,0.7-0.1,1.4-0.2,2.1l-0.7,6.2l-0.4,0c-1.8,7.1-5.2,13.6-10.1,19.1l-15,26.7h10.4l24.2,51.8H1066.5z"/>
	<g>
		<polygon fill="#4EC45C" points="1165.4,711.2 1074.3,711.2 1093.9,669.4 1145.9,669.4 		"/>
		<polygon fill="#38A843" points="1104,689.4 1112,669.4 1093.9,669.4 1074.3,711.2 1142,711.2 1133.9,689.4 		"/>
		<path fill="#414042" d="M1090.2,634.7c-5.4-5.9-8.9-13.1-10.1-21h0l-0.2-1.9l0-0.1c-0.1-0.6-0.1-1.2-0.1-1.8l0-0.3
			c0-0.7-0.1-1.4-0.1-2.1c0-0.7,0-1.4,0.1-2.1l0-0.1c0-0.7,0.1-1.4,0.2-2.1c0.6-5.2,2.1-10.2,4.6-14.8c7.1-13,20.6-21,35.4-21
			c20.6,0,37.8,15.4,40,35.9c0.1,0.7,0.1,1.4,0.2,2.1c0,0.8,0.1,1.5,0.1,2.2c0,0.7,0,1.4-0.1,2.1l0,0.2c0,0.7-0.1,1.3-0.2,1.9
			l-0.2,1.9l0,0c-1.2,7.9-4.7,15.1-10.1,21.1l-29.6,52.9L1090.2,634.7z"/>
		<path fill="#E5E5E5" d="M1158,607.5c0-21.1-17.1-38.2-38.2-38.2v66.8v9.5v37.7l27.9-49.8l0,0C1154.1,626.7,1158,617.6,1158,607.5z
			"/>
		<path fill="#F1F2F2" d="M1119.9,645.7v-9.5v-66.8c-21.1,0-38.2,17.1-38.2,38.2c0,10,3.9,19.2,10.2,26l0,0l27.9,49.8V645.7
			L1119.9,645.7z"/>
		<path fill="#D50B06" d="M1119.9,569.4c-21.1,0-38.2,17.1-38.2,38.2h76.3C1158,586.5,1140.9,569.4,1119.9,569.4z"/>
		<path fill="#C10202" d="M1158,607.5c0-21.1-17.1-38.2-38.2-38.2v38.2H1158z"/>
		<circle fill="#414042" cx="1119.9" cy="607.5" r="14.2"/>
		<path fill="#414042" d="M1081.7,607.5c0,1.4,0.1,2.8,0.2,4.1h75.9c0.1-1.4,0.2-2.7,0.2-4.1c0-1.4-0.1-2.8-0.2-4.1h-75.9
			C1081.8,604.8,1081.7,606.1,1081.7,607.5z"/>
		<path fill="#323233" d="M1134.1,607.5c0-7.9-6.4-14.2-14.2-14.2v28.4C1127.7,621.7,1134.1,615.4,1134.1,607.5z"/>
		<path fill="#323233" d="M1119.9,603.4v8.2h37.9c0.1-1.4,0.2-2.7,0.2-4.1c0-1.4-0.1-2.8-0.2-4.1H1119.9z"/>
		<path fill="#E5E5E5" d="M1119.9,601c-3.6,0-6.6,2.9-6.6,6.6s2.9,6.6,6.6,6.6c2.5,0,4.7-1.4,5.8-3.4c0.5-0.9,0.8-2,0.8-3.1
			C1126.4,603.9,1123.5,601,1119.9,601z"/>
	</g>
</g>
<g>
	<path fill="#58595B" d="M564.8,717.4c-40,0-73.5-30-77.7-69.8c0-0.3-0.1-0.6-0.1-1l0-0.3c-0.1-1-0.2-2-0.2-3l0-0.7
		c-0.1-1.3-0.1-2.4-0.1-3.6c0-1.1,0-2.3,0.1-3.6l0-0.6c0.1-1,0.1-2,0.2-3c1.8-19.3,10.6-37.2,25-50.4c14.4-13.3,33.2-20.6,52.8-20.6
		c20.9,0,40.5,8.1,55.3,22.9c0.9,0.9,1.8,1.8,2.6,2.7c1.1,1.2,2.2,2.5,3.5,4.1c2.8,3.6,5.3,7.3,7.4,11.2c0.6,1.1,1.2,2.2,1.7,3.4
		c4,8.4,6.5,17.4,7.4,26.7c0.1,1,0.2,2,0.2,3l0,0.7c0.1,1.3,0.1,2.5,0.1,3.6c0,1.1,0,2.3-0.1,3.6l0,0.7c-0.1,1-0.1,2-0.2,3
		c-0.9,9.3-3.3,18.3-7.4,26.7c-0.5,1.1-1.1,2.3-1.7,3.4c-4.2,7.7-9.6,14.7-16.2,20.6c-0.9,0.8-1.9,1.7-2.8,2.5
		C600.6,711.1,582.9,717.4,564.8,717.4z"/>
	<g>
		<circle fill="#F1F2F2" cx="564.8" cy="639.2" r="73.2"/>
		<path fill="#E5E5E5" d="M638,639.2c0-40.4-32.8-73.2-73.2-73.2v146.4C605.2,712.4,638,679.7,638,639.2z"/>
		<path fill="#EAC14E" d="M564.8,566c-40.4,0-73.2,32.8-73.2,73.2H638C638,598.8,605.2,566,564.8,566z"/>
		<path fill="#DBAD3B" d="M638,639.2c0-40.4-32.8-73.2-73.2-73.2v73.2H638z"/>
		<circle fill="#414042" cx="564.8" cy="639.2" r="23.4"/>
		<path fill="#414042" d="M491.6,639.2c0,2.7,0.2,5.3,0.4,7.9h145.5c0.3-2.6,0.4-5.2,0.4-7.9c0-2.7-0.2-5.3-0.4-7.9H492.1
			C491.8,633.9,491.6,636.6,491.6,639.2z"/>
		<path fill="#323233" d="M588.2,639.2c0-12.9-10.5-23.4-23.4-23.4v46.8C577.7,662.6,588.2,652.2,588.2,639.2z"/>
		<path fill="#323233" d="M564.8,631.3v15.8h72.8c0.3-2.6,0.4-5.2,0.4-7.9c0-2.7-0.2-5.3-0.4-7.9H564.8z"/>
		<path fill="#E5E5E5" d="M572.5,631.6c-2-2-4.7-3.2-7.6-3.2c-6,0-10.8,4.8-10.8,10.8c0,6,4.8,10.8,10.8,10.8h0l0,0
			c6,0,10.8-4.8,10.8-10.8C575.6,636.3,574.4,633.6,572.5,631.6z"/>
	</g>
</g>
<g>
	<path fill="#58595B" d="M840.7,717.4c-40,0-73.5-30-77.7-69.8c0-0.3-0.1-0.6-0.1-1l0-0.3c-0.1-1-0.2-2-0.2-3l0-0.7
		c-0.1-1.3-0.1-2.5-0.1-3.6c0-1.1,0-2.3,0.1-3.6l0-0.6c0.1-1,0.1-2,0.2-3c0,0,0.1-0.9,0.1-1.2c4.3-39.8,37.7-69.8,77.7-69.8
		c19.6,0,38.3,7.3,52.7,20.4c1.8,1.7,3.6,3.4,5.2,5.2c1.1,1.2,2.2,2.5,3.5,4.1c9.4,11.9,15.1,26.2,16.5,41.2c0.1,1,0.2,2,0.2,3
		l0,0.7c0,1,0.1,1.9,0.1,2.8l0,0l0,1.3l0,0c0,0.9,0,1.9-0.1,2.9l0,0.7c-0.1,1-0.1,2-0.2,3c-1.8,19.3-10.6,37.2-25,50.4
		C879,710.1,860.3,717.4,840.7,717.4z"/>
	<g>
		<circle fill="#F1F2F2" cx="840.7" cy="639.2" r="73.2"/>
		<path fill="#E5E5E5" d="M913.8,639.2c0-40.4-32.8-73.2-73.2-73.2v146.4C881.1,712.4,913.8,679.7,913.8,639.2z"/>
		<path fill="#309BF2" d="M840.7,566c-40.4,0-73.2,32.8-73.2,73.2h146.4C913.8,598.8,881.1,566,840.7,566z"/>
		<path fill="#1E92E0" d="M913.8,639.2c0-40.4-32.8-73.2-73.2-73.2v73.2H913.8z"/>
		<circle fill="#414042" cx="840.7" cy="639.2" r="23.4"/>
		<path fill="#414042" d="M767.5,639.2c0,2.7,0.2,5.3,0.4,7.9h145.5c0.3-2.6,0.4-5.2,0.4-7.9c0-2.7-0.2-5.3-0.4-7.9H767.9
			C767.6,633.9,767.5,636.6,767.5,639.2z"/>
		<path fill="#323233" d="M864.1,639.2c0-12.9-10.5-23.4-23.4-23.4v46.8C853.6,662.6,864.1,652.2,864.1,639.2z"/>
		<path fill="#323233" d="M840.7,631.3v15.8h72.8c0.3-2.6,0.4-5.2,0.4-7.9c0-2.7-0.2-5.3-0.4-7.9H840.7z"/>
		<path fill="#E5E5E5" d="M840.7,628.4L840.7,628.4L840.7,628.4c-6,0-10.8,4.8-10.8,10.8s4.8,10.8,10.8,10.8h0l0,0
			c6,0,10.8-4.8,10.8-10.8S846.6,628.4,840.7,628.4z"/>
		<path fill="#BE1E2D" d="M777.3,602.6H820v-12.9h-33.2C783.2,593.6,780,598,777.3,602.6z"/>
		<path fill="#BE1E2D" d="M904,602.6h-42.7v-12.9h33.2C898.1,593.6,901.3,598,904,602.6z"/>
	</g>
</g>
</svg>
